# xmcd
#
# Track frame offsets:
#	150
#	20199
#	38217
#	52968
#	67368
#	82143
#	96836
#	111630
#	125642
#	139619
#	151999
#	165373
#	183027
#	202216
#	220489
#	235670
#	249959
#	264790
#	279752
#	294757
#	308315
#
# Disc length: 4293 seconds
#
# Revision: 0
# Processed by: cddbd v1.5.2PL0 Copyright (c) Steve Scherf et al.
# Submitted via: EasyCDDAExtractor 16.0.6.1
#
DISCID=2810c315
DTITLE=Συλλογικός δίσκος - Μουρμούρικα-Songs of the Greek underworld 1930-1955
DYEAR=1999
DGENRE=Ρεμπέτικη
TTITLE0=Χαλκιάς Ιωάννης ή Jack Gregory - Μορμούρικο ζεϊμπέκικο [Mourmouriko-Ze
TTITLE0=imbekiko]
TTITLE1=Μπέζος Κώστας ή Κωστής Α. - Στην υπόγα [In the Basement]
TTITLE2=Σπαχάνης - Τα δίστιχα του μάγκα [The Mangas (Dude' s) Song]
TTITLE3=Καμβίσης Γιώργος - Ο καϋμός της φυλακής [Prisoner' s Blues]
TTITLE4=Κασιμάτης Ζαχαρίας - Ο μάγκας του Βοτανικού [The Dude from Votanikos]
TTITLE5=Περπινιάδης Στελλάκης - Ο παπατζής [The Con Artist]
TTITLE6=Ρούκουνας Κώστας ή Σαμιωτάκης - Δερβίσαινα [The Dervish's Broad]
TTITLE7=Περπινιάδης Στελλάκης - Ζούλα η Μαργιωρή [Marjorie, on the Sly]
TTITLE8=Μεσολογγίτης Βασίλης - Κοχλαράκιας [The Junkie]
TTITLE9=Κατσαρός Γιώργος - Μάς πήγαν εξορία [They Sent Us into Exile]
TTITLE10=Ελευθεριάδης Τάσος - Μουρμουράκι [The Mourmouris]
TTITLE11=Χαλκιάς Ιωάννης ή Jack Gregory - Ραστ του τεκέ [Hash-den Instrumental
TTITLE11=]
TTITLE12=Μπέζος Κώστας ή Κωστής Α. - Η φυλακή είναι σχολείο [The Jail's a Fine
TTITLE12=School]
TTITLE13=Δούσας Κώστας - Μανώλης ο χασικλής [Manolis the Hash-smoker]
TTITLE14=Κασιμάτης Ζαχαρίας - Τα μπελεντέρια [The Ruffians]
TTITLE15=Περπινιάδης Στελλάκης - Μιά τσαχπίνα μαυρομάτα [The Dark-eyed Flirt]
TTITLE16=Καναροπούλου Μαρίκα ή Τουρκαλίτσα - Ένας μάγκας στον τεκέ μου [A Mang
TTITLE16=as (Dude) at the Deke]
TTITLE17=Ρούκουνας Κώστας ή Σαμιωτάκης - Κάτω στα Λεμονάδικα (Οι λαχανάδες) [T
TTITLE17=he Pickpockets]
TTITLE18=Ζουριδάκης Φραγκίσκος ή Τζούρας - Συριανό χασάπικο [Dance from Syros 
TTITLE18=(Syrian Hasapiko)]
TTITLE19=Κρητικός Χαρίλαος - Κουμαρτζής [The Gambler]
TTITLE20=Πουρπουράκης Νίκος - Ο σουλτάνος [The Sultan]
EXTD=
EXTT0=
EXTT1=
EXTT2=
EXTT3=
EXTT4=
EXTT5=
EXTT6=
EXTT7=
EXTT8=
EXTT9=
EXTT10=
EXTT11=
EXTT12=
EXTT13=
EXTT14=
EXTT15=
EXTT16=
EXTT17=
EXTT18=
EXTT19=
EXTT20=
PLAYORDER=
